<svg width="32" height="32" viewBox="0 0 32 32" fill="none" xmlns="http://www.w3.org/2000/svg">
<g clip-path="url(#clip0_20_48)">
<path d="M31.2391 7.90543L31.2789 8.16677C30.8949 6.79477 29.8581 5.7361 28.5406 5.35077L28.5128 5.3441C26.0354 4.66677 16.0663 4.66677 16.0663 4.66677C16.0663 4.66677 6.12236 4.65343 3.61982 5.3441C2.27719 5.7361 1.2391 6.79477 0.861732 8.13877L0.855111 8.16677C-0.0704316 13.0348 -0.0770522 18.8841 0.896158 24.0961L0.855111 23.8321C1.2391 25.2041 2.27587 26.2628 3.59334 26.6481L3.62115 26.6548C6.09588 27.3334 16.0676 27.3334 16.0676 27.3334C16.0676 27.3334 26.0103 27.3334 28.5141 26.6548C29.8581 26.2628 30.8962 25.2041 31.2736 23.8601L31.2802 23.8321C31.7012 21.5681 31.9422 18.9628 31.9422 16.3014C31.9422 16.2041 31.9422 16.1054 31.9409 16.0068C31.9422 15.9161 31.9422 15.8081 31.9422 15.7001C31.9422 13.0374 31.7012 10.4321 31.2391 7.90543ZM12.8858 20.8681V11.1441L21.1826 16.0134L12.8858 20.8681Z" fill="white"/>
</g>
<defs>
<clipPath id="clip0_20_48">
<rect width="31.7783" height="32" fill="white" transform="translate(0.16394)"/>
</clipPath>
</defs>
</svg>
